<svg width="640" height="400" viewBox="0 0 640 400" fill="none" xmlns="http://www.w3.org/2000/svg">
  <rect width="640" height="400" rx="32" fill="#ECFDF3"/>
  <rect x="48" y="56" width="544" height="288" rx="24" fill="#D1FAE5"/>
  <rect x="96" y="104" width="352" height="36" rx="18" fill="#10B981"/>
  <rect x="96" y="164" width="360" height="20" rx="10" fill="#6EE7B7"/>
  <rect x="96" y="196" width="280" height="20" rx="10" fill="#A7F3D0"/>
  <rect x="96" y="228" width="320" height="20" rx="10" fill="#A7F3D0"/>
  <circle cx="510" cy="200" r="58" fill="#34D399"/>
  <path d="M524 214C515 228 496 230 482 220C468 210 462 191 470 176C478 161 496 154 512 160C522 164 530 172 534 182L522 188" stroke="#ECFDF3" stroke-width="10" stroke-linecap="round" stroke-linejoin="round"/>
  <path d="M496 194L504 202L522 184" stroke="#ECFDF3" stroke-width="10" stroke-linecap="round" stroke-linejoin="round"/>
  <rect x="96" y="272" width="240" height="20" rx="10" fill="#A7F3D0"/>
</svg>
